<?xml version="1.0" encoding="utf-8" standalone="no"?>
<!DOCTYPE svg PUBLIC "-//W3C//DTD SVG 1.1//EN"
  "http://www.w3.org/Graphics/SVG/1.1/DTD/svg11.dtd">
<svg xmlns:xlink="http://www.w3.org/1999/xlink" width="720pt" height="403.2pt" viewBox="0 0 720 403.2" xmlns="http://www.w3.org/2000/svg" version="1.1">
 <metadata>
  <rdf:RDF xmlns:dc="http://purl.org/dc/elements/1.1/" xmlns:cc="http://creativecommons.org/ns#" xmlns:rdf="http://www.w3.org/1999/02/22-rdf-syntax-ns#">
   <cc:Work>
    <dc:type rdf:resource="http://purl.org/dc/dcmitype/StillImage"/>
    <dc:date>2026-04-09T14:40:38.571551</dc:date>
    <dc:format>image/svg+xml</dc:format>
    <dc:creator>
     <cc:Agent>
      <dc:title>Matplotlib v3.9.2, https://matplotlib.org/</dc:title>
     </cc:Agent>
    </dc:creator>
   </cc:Work>
  </rdf:RDF>
 </metadata>
 <defs>
  <style type="text/css">*{stroke-linejoin: round; stroke-linecap: butt}</style>
 </defs>
 <g id="figure_1">
  <g id="patch_1">
   <path d="M 0 403.2 
L 720 403.2 
L 720 0 
L 0 0 
z
" style="fill: #ffffff"/>
  </g>
  <g id="axes_1">
   <g id="patch_2">
    <path d="M 341.92 350.2 
L 561.776 350.2 
L 561.776 31.68 
L 341.92 31.68 
z
" style="fill: #ffffff"/>
   </g>
   <g id="PathCollection_1">
    <path d="M 498.12134 347.750138 
C 501.311288 347.750138 504.371013 346.482758 506.626647 344.227125 
C 508.88228 341.971491 510.14966 338.911766 510.14966 335.721818 
C 510.14966 332.53187 508.88228 329.472145 506.626647 327.216512 
C 504.371013 324.960878 501.311288 323.693498 498.12134 323.693498 
C 494.931392 323.693498 491.871667 324.960878 489.616033 327.216512 
C 487.3604 329.472145 486.09302 332.53187 486.09302 335.721818 
C 486.09302 338.911766 487.3604 341.971491 489.616033 344.227125 
C 491.871667 346.482758 494.931392 347.750138 498.12134 347.750138 
z
" clip-path="url(#p2a4804c536)" style="fill: #008080; fill-opacity: 0.7; stroke: #000000; stroke-opacity: 0.7"/>
    <path d="M 471.516228 261.701575 
C 473.826737 261.701575 476.042925 260.7836 477.676701 259.149823 
C 479.310478 257.516047 480.228453 255.299859 480.228453 252.989351 
C 480.228453 250.678842 479.310478 248.462654 477.676701 246.828878 
C 476.042925 245.195101 473.826737 244.277127 471.516228 244.277127 
C 469.20572 244.277127 466.989532 245.195101 465.355756 246.828878 
C 463.721979 248.462654 462.804004 250.678842 462.804004 252.989351 
C 462.804004 255.299859 463.721979 257.516047 465.355756 259.149823 
C 466.989532 260.7836 469.20572 261.701575 471.516228 261.701575 
z
" clip-path="url(#p2a4804c536)" style="fill: #008080; fill-opacity: 0.7; stroke: #000000; stroke-opacity: 0.7"/>
    <path d="M 475.227395 179.728884 
C 477.739399 179.728884 480.148856 178.730854 481.925111 176.954599 
C 483.701366 175.178344 484.699396 172.768887 484.699396 170.256883 
C 484.699396 167.744879 483.701366 165.335422 481.925111 163.559167 
C 480.148856 161.782912 477.739399 160.784883 475.227395 160.784883 
C 472.715392 160.784883 470.305935 161.782912 468.52968 163.559167 
C 466.753425 165.335422 465.755395 167.744879 465.755395 170.256883 
C 465.755395 172.768887 466.753425 175.178344 468.52968 176.954599 
C 470.305935 178.730854 472.715392 179.728884 475.227395 179.728884 
z
" clip-path="url(#p2a4804c536)" style="fill: #008080; fill-opacity: 0.7; stroke: #000000; stroke-opacity: 0.7"/>
    <path d="M 522.415405 59.846514 
C 526.045593 59.846514 529.527587 58.404225 532.094517 55.837294 
C 534.661448 53.270364 536.103737 49.78837 536.103737 46.158182 
C 536.103737 42.527994 534.661448 39.046 532.094517 36.479069 
C 529.527587 33.912139 526.045593 32.46985 522.415405 32.46985 
C 518.785217 32.46985 515.303223 33.912139 512.736292 36.479069 
C 510.169362 39.046 508.727073 42.527994 508.727073 46.158182 
C 508.727073 49.78837 510.169362 53.270364 512.736292 55.837294 
C 515.303223 58.404225 518.785217 59.846514 522.415405 59.846514 
z
" clip-path="url(#p2a4804c536)" style="fill: #008080; fill-opacity: 0.7; stroke: #000000; stroke-opacity: 0.7"/>
   </g>
   <g id="PathCollection_2">
    <path d="M 396.658068 349.127975 
C 400.213422 349.127975 403.623637 347.715417 406.137652 345.201402 
C 408.651667 342.687387 410.064225 339.277172 410.064225 335.721818 
C 410.064225 332.166464 408.651667 328.756249 406.137652 326.242234 
C 403.623637 323.728219 400.213422 322.315662 396.658068 322.315662 
C 393.102714 322.315662 389.692499 323.728219 387.178484 326.242234 
C 384.664469 328.756249 383.251912 332.166464 383.251912 335.721818 
C 383.251912 339.277172 384.664469 342.687387 387.178484 345.201402 
C 389.692499 347.715417 393.102714 349.127975 396.658068 349.127975 
z
" clip-path="url(#p2a4804c536)" style="fill: #808000; fill-opacity: 0.7; stroke: #000000; stroke-opacity: 0.7"/>
    <path d="M 443.278023 300.770066 
C 444.979163 300.770066 446.610859 300.094196 447.813746 298.891308 
C 449.016634 297.68842 449.692505 296.056725 449.692505 294.355584 
C 449.692505 292.654444 449.016634 291.022749 447.813746 289.819861 
C 446.610859 288.616973 444.979163 287.941103 443.278023 287.941103 
C 441.576882 287.941103 439.945187 288.616973 438.742299 289.819861 
C 437.539411 291.022749 436.863541 292.654444 436.863541 294.355584 
C 436.863541 296.056725 437.539411 297.68842 438.742299 298.891308 
C 439.945187 300.094196 441.576882 300.770066 443.278023 300.770066 
z
" clip-path="url(#p2a4804c536)" style="fill: #808000; fill-opacity: 0.7; stroke: #000000; stroke-opacity: 0.7"/>
    <path d="M 440.018872 260.599527 
C 442.037115 260.599527 443.972967 259.797671 445.40008 258.370558 
C 446.827192 256.943445 447.629049 255.007593 447.629049 252.989351 
C 447.629049 250.971108 446.827192 249.035256 445.40008 247.608143 
C 443.972967 246.18103 442.037115 245.379174 440.018872 245.379174 
C 438.00063 245.379174 436.064778 246.18103 434.637665 247.608143 
C 433.210552 249.035256 432.408696 250.971108 432.408696 252.989351 
C 432.408696 255.007593 433.210552 256.943445 434.637665 258.370558 
C 436.064778 259.797671 438.00063 260.599527 440.018872 260.599527 
z
" clip-path="url(#p2a4804c536)" style="fill: #808000; fill-opacity: 0.7; stroke: #000000; stroke-opacity: 0.7"/>
    <path d="M 405.891187 222.48787 
C 408.772553 222.48787 411.536294 221.343091 413.573727 219.305657 
C 415.611161 217.268224 416.75594 214.504483 416.75594 211.623117 
C 416.75594 208.741751 415.611161 205.97801 413.573727 203.940576 
C 411.536294 201.903143 408.772553 200.758364 405.891187 200.758364 
C 403.009821 200.758364 400.24608 201.903143 398.208646 203.940576 
C 396.171213 205.97801 395.026434 208.741751 395.026434 211.623117 
C 395.026434 214.504483 396.171213 217.268224 398.208646 219.305657 
C 400.24608 221.343091 403.009821 222.48787 405.891187 222.48787 
z
" clip-path="url(#p2a4804c536)" style="fill: #808000; fill-opacity: 0.7; stroke: #000000; stroke-opacity: 0.7"/>
    <path d="M 436.673222 178.840133 
C 438.949526 178.840133 441.132906 177.935748 442.742496 176.326158 
C 444.352087 174.716567 445.256472 172.533188 445.256472 170.256883 
C 445.256472 167.980579 444.352087 165.797199 442.742496 164.187609 
C 441.132906 162.578018 438.949526 161.673633 436.673222 161.673633 
C 434.396917 161.673633 432.213538 162.578018 430.603947 164.187609 
C 428.994357 165.797199 428.089971 167.980579 428.089971 170.256883 
C 428.089971 172.533188 428.994357 174.716567 430.603947 176.326158 
C 432.213538 177.935748 434.396917 178.840133 436.673222 178.840133 
z
" clip-path="url(#p2a4804c536)" style="fill: #808000; fill-opacity: 0.7; stroke: #000000; stroke-opacity: 0.7"/>
    <path d="M 399.749255 138.574468 
C 402.317434 138.574468 404.780773 137.55412 406.596749 135.738143 
C 408.412726 133.922167 409.433074 131.458828 409.433074 128.890649 
C 409.433074 126.322471 408.412726 123.859132 406.596749 122.043156 
C 404.780773 120.227179 402.317434 119.206831 399.749255 119.206831 
C 397.181077 119.206831 394.717738 120.227179 392.901762 122.043156 
C 391.085785 123.859132 390.065437 126.322471 390.065437 128.890649 
C 390.065437 131.458828 391.085785 133.922167 392.901762 135.738143 
C 394.717738 137.55412 397.181077 138.574468 399.749255 138.574468 
z
" clip-path="url(#p2a4804c536)" style="fill: #808000; fill-opacity: 0.7; stroke: #000000; stroke-opacity: 0.7"/>
    <path d="M 361.605641 101.674073 
C 365.358174 101.674073 368.957518 100.183176 371.61096 97.529734 
C 374.264401 94.876293 375.755299 91.276949 375.755299 87.524416 
C 375.755299 83.771883 374.264401 80.172538 371.61096 77.519097 
C 368.957518 74.865655 365.358174 73.374758 361.605641 73.374758 
C 357.853108 73.374758 354.253764 74.865655 351.600323 77.519097 
C 348.946881 80.172538 347.455984 83.771883 347.455984 87.524416 
C 347.455984 91.276949 348.946881 94.876293 351.600323 97.529734 
C 354.253764 100.183176 357.853108 101.674073 361.605641 101.674073 
z
" clip-path="url(#p2a4804c536)" style="fill: #808000; fill-opacity: 0.7; stroke: #000000; stroke-opacity: 0.7"/>
    <path d="M 443.010469 52.930827 
C 444.806595 52.930827 446.529399 52.217219 447.799452 50.947165 
C 449.069506 49.677112 449.783114 47.954308 449.783114 46.158182 
C 449.783114 44.362055 449.069506 42.639251 447.799452 41.369198 
C 446.529399 40.099145 444.806595 39.385536 443.010469 39.385536 
C 441.214342 39.385536 439.491538 40.099145 438.221485 41.369198 
C 436.951432 42.639251 436.237823 44.362055 436.237823 46.158182 
C 436.237823 47.954308 436.951432 49.677112 438.221485 50.947165 
C 439.491538 52.217219 441.214342 52.930827 443.010469 52.930827 
z
" clip-path="url(#p2a4804c536)" style="fill: #808000; fill-opacity: 0.7; stroke: #000000; stroke-opacity: 0.7"/>
   </g>
   <g id="PathCollection_3">
    <path d="M 483.685794 53.917322 
C 485.743542 53.917322 487.717287 53.09977 489.172335 51.644722 
C 490.627382 50.189675 491.444934 48.21593 491.444934 46.158182 
C 491.444934 44.100434 490.627382 42.126689 489.172335 40.671641 
C 487.717287 39.216594 485.743542 38.399042 483.685794 38.399042 
C 481.628046 38.399042 479.654301 39.216594 478.199254 40.671641 
C 476.744206 42.126689 475.926654 44.100434 475.926654 46.158182 
C 475.926654 48.21593 476.744206 50.189675 478.199254 51.644722 
C 479.654301 53.09977 481.628046 53.917322 483.685794 53.917322 
z
" clip-path="url(#p2a4804c536)" style="fill: #800080; fill-opacity: 0.7; stroke: #000000; stroke-opacity: 0.7"/>
    <path d="M 431.831294 344.526235 
C 434.166253 344.526235 436.405892 343.598546 438.056957 341.947481 
C 439.708022 340.296416 440.635711 338.056777 440.635711 335.721818 
C 440.635711 333.38686 439.708022 331.147221 438.056957 329.496155 
C 436.405892 327.84509 434.166253 326.917402 431.831294 326.917402 
C 429.496335 326.917402 427.256696 327.84509 425.605631 329.496155 
C 423.954566 331.147221 423.026877 333.38686 423.026877 335.721818 
C 423.026877 338.056777 423.954566 340.296416 425.605631 341.947481 
C 427.256696 343.598546 429.496335 344.526235 431.831294 344.526235 
z
" clip-path="url(#p2a4804c536)" style="fill: #800080; fill-opacity: 0.7; stroke: #000000; stroke-opacity: 0.7"/>
    <path d="M 442.851015 300.974243 
C 444.606304 300.974243 446.289937 300.27686 447.531114 299.035683 
C 448.77229 297.794506 449.469674 296.110873 449.469674 294.355584 
C 449.469674 292.600296 448.77229 290.916662 447.531114 289.675486 
C 446.289937 288.434309 444.606304 287.736925 442.851015 287.736925 
C 441.095726 287.736925 439.412093 288.434309 438.170916 289.675486 
C 436.92974 290.916662 436.232356 292.600296 436.232356 294.355584 
C 436.232356 296.110873 436.92974 297.794506 438.170916 299.035683 
C 439.412093 300.27686 441.095726 300.974243 442.851015 300.974243 
z
" clip-path="url(#p2a4804c536)" style="fill: #800080; fill-opacity: 0.7; stroke: #000000; stroke-opacity: 0.7"/>
    <path d="M 437.273487 261.118959 
C 439.429485 261.118959 441.497468 260.262372 443.021989 258.737852 
C 444.546509 257.213332 445.403096 255.145348 445.403096 252.989351 
C 445.403096 250.833353 444.546509 248.76537 443.021989 247.240849 
C 441.497468 245.716329 439.429485 244.859742 437.273487 244.859742 
C 435.11749 244.859742 433.049506 245.716329 431.524986 247.240849 
C 430.000466 248.76537 429.143879 250.833353 429.143879 252.989351 
C 429.143879 255.145348 430.000466 257.213332 431.524986 258.737852 
C 433.049506 260.262372 435.11749 261.118959 437.273487 261.118959 
z
" clip-path="url(#p2a4804c536)" style="fill: #800080; fill-opacity: 0.7; stroke: #000000; stroke-opacity: 0.7"/>
    <path d="M 399.364697 221.364549 
C 401.948155 221.364549 404.426149 220.33813 406.25293 218.51135 
C 408.079711 216.684569 409.10613 214.206575 409.10613 211.623117 
C 409.10613 209.039659 408.079711 206.561665 406.25293 204.734884 
C 404.426149 202.908103 401.948155 201.881685 399.364697 201.881685 
C 396.781239 201.881685 394.303245 202.908103 392.476465 204.734884 
C 390.649684 206.561665 389.623265 209.039659 389.623265 211.623117 
C 389.623265 214.206575 390.649684 216.684569 392.476465 218.51135 
C 394.303245 220.33813 396.781239 221.364549 399.364697 221.364549 
z
" clip-path="url(#p2a4804c536)" style="fill: #800080; fill-opacity: 0.7; stroke: #000000; stroke-opacity: 0.7"/>
    <path d="M 445.970268 176.380012 
C 447.594141 176.380012 449.151723 175.734841 450.299974 174.586589 
C 451.448226 173.438338 452.093398 171.880756 452.093398 170.256883 
C 452.093398 168.63301 451.448226 167.075428 450.299974 165.927177 
C 449.151723 164.778925 447.594141 164.133754 445.970268 164.133754 
C 444.346395 164.133754 442.788814 164.778925 441.640562 165.927177 
C 440.492311 167.075428 439.847139 168.63301 439.847139 170.256883 
C 439.847139 171.880756 440.492311 173.438338 441.640562 174.586589 
C 442.788814 175.734841 444.346395 176.380012 445.970268 176.380012 
z
" clip-path="url(#p2a4804c536)" style="fill: #800080; fill-opacity: 0.7; stroke: #000000; stroke-opacity: 0.7"/>
    <path d="M 384.567035 137.601438 
C 386.877163 137.601438 389.092986 136.683614 390.726493 135.050107 
C 392.36 133.4166 393.277824 131.200777 393.277824 128.890649 
C 393.277824 126.580521 392.36 124.364699 390.726493 122.731192 
C 389.092986 121.097685 386.877163 120.179861 384.567035 120.179861 
C 382.256907 120.179861 380.041085 121.097685 378.407578 122.731192 
C 376.77407 124.364699 375.856247 126.580521 375.856247 128.890649 
C 375.856247 131.200777 376.77407 133.4166 378.407578 135.050107 
C 380.041085 136.683614 382.256907 137.601438 384.567035 137.601438 
z
" clip-path="url(#p2a4804c536)" style="fill: #800080; fill-opacity: 0.7; stroke: #000000; stroke-opacity: 0.7"/>
    <path d="M 360.356847 99.335394 
C 363.489155 99.335394 366.493593 98.090915 368.70847 95.876038 
C 370.923346 93.661162 372.167825 90.656724 372.167825 87.524416 
C 372.167825 84.392108 370.923346 81.387669 368.70847 79.172793 
C 366.493593 76.957917 363.489155 75.713437 360.356847 75.713437 
C 357.224539 75.713437 354.2201 76.957917 352.005224 79.172793 
C 349.790348 81.387669 348.545869 84.392108 348.545869 87.524416 
C 348.545869 90.656724 349.790348 93.661162 352.005224 95.876038 
C 354.2201 98.090915 357.224539 99.335394 360.356847 99.335394 
z
" clip-path="url(#p2a4804c536)" style="fill: #800080; fill-opacity: 0.7; stroke: #000000; stroke-opacity: 0.7"/>
   </g>
   <g id="PathCollection_4"/>
   <g id="PathCollection_5"/>
   <g id="PathCollection_6"/>
   <g id="matplotlib.axis_1">
    <g id="xtick_1">
     <g id="line2d_1">
      <defs>
       <path id="m488335efbf" d="M 0 0 
L 0 3.5 
" style="stroke: #000000; stroke-width: 0.8"/>
      </defs>
      <g>
       <use xlink:href="#m488335efbf" x="363.196387" y="350.2" style="stroke: #000000; stroke-width: 0.8"/>
      </g>
     </g>
     <g id="text_1">
      <!-- −100 -->
      <g transform="translate(347.429981 367.220937) scale(0.14 -0.14)">
       <defs>
        <path id="ArialMT-2212" d="M 3381 1997 
L 356 1997 
L 356 2522 
L 3381 2522 
L 3381 1997 
z
" transform="scale(0.015625)"/>
        <path id="ArialMT-31" d="M 2384 0 
L 1822 0 
L 1822 3584 
Q 1619 3391 1289 3197 
Q 959 3003 697 2906 
L 697 3450 
Q 1169 3672 1522 3987 
Q 1875 4303 2022 4600 
L 2384 4600 
L 2384 0 
z
" transform="scale(0.015625)"/>
        <path id="ArialMT-30" d="M 266 2259 
Q 266 3072 433 3567 
Q 600 4063 929 4331 
Q 1259 4600 1759 4600 
Q 2128 4600 2406 4451 
Q 2684 4303 2865 4023 
Q 3047 3744 3150 3342 
Q 3253 2941 3253 2259 
Q 3253 1453 3087 958 
Q 2922 463 2592 192 
Q 2263 -78 1759 -78 
Q 1097 -78 719 397 
Q 266 969 266 2259 
z
M 844 2259 
Q 844 1131 1108 757 
Q 1372 384 1759 384 
Q 2147 384 2411 759 
Q 2675 1134 2675 2259 
Q 2675 3391 2411 3762 
Q 2147 4134 1753 4134 
Q 1366 4134 1134 3806 
Q 844 3388 844 2259 
z
" transform="scale(0.015625)"/>
       </defs>
       <use xlink:href="#ArialMT-2212"/>
       <use xlink:href="#ArialMT-31" x="58.398438"/>
       <use xlink:href="#ArialMT-30" x="114.013672"/>
       <use xlink:href="#ArialMT-30" x="169.628906"/>
      </g>
     </g>
    </g>
    <g id="xtick_2">
     <g id="line2d_2">
      <g>
       <use xlink:href="#m488335efbf" x="407.522194" y="350.2" style="stroke: #000000; stroke-width: 0.8"/>
      </g>
     </g>
     <g id="text_2">
      <!-- −50 -->
      <g transform="translate(395.648444 367.220937) scale(0.14 -0.14)">
       <defs>
        <path id="ArialMT-35" d="M 266 1200 
L 856 1250 
Q 922 819 1161 601 
Q 1400 384 1738 384 
Q 2144 384 2425 690 
Q 2706 997 2706 1503 
Q 2706 1984 2436 2262 
Q 2166 2541 1728 2541 
Q 1456 2541 1237 2417 
Q 1019 2294 894 2097 
L 366 2166 
L 809 4519 
L 3088 4519 
L 3088 3981 
L 1259 3981 
L 1013 2750 
Q 1425 3038 1878 3038 
Q 2478 3038 2890 2622 
Q 3303 2206 3303 1553 
Q 3303 931 2941 478 
Q 2500 -78 1738 -78 
Q 1113 -78 717 272 
Q 322 622 266 1200 
z
" transform="scale(0.015625)"/>
       </defs>
       <use xlink:href="#ArialMT-2212"/>
       <use xlink:href="#ArialMT-35" x="58.398438"/>
       <use xlink:href="#ArialMT-30" x="114.013672"/>
      </g>
     </g>
    </g>
    <g id="xtick_3">
     <g id="line2d_3">
      <g>
       <use xlink:href="#m488335efbf" x="451.848" y="350.2" style="stroke: #000000; stroke-width: 0.8"/>
      </g>
     </g>
     <g id="text_3">
      <!-- 0 -->
      <g transform="translate(447.955344 367.220937) scale(0.14 -0.14)">
       <use xlink:href="#ArialMT-30"/>
      </g>
     </g>
    </g>
    <g id="xtick_4">
     <g id="line2d_4">
      <g>
       <use xlink:href="#m488335efbf" x="496.173806" y="350.2" style="stroke: #000000; stroke-width: 0.8"/>
      </g>
     </g>
     <g id="text_4">
      <!-- 50 -->
      <g transform="translate(488.388494 367.220937) scale(0.14 -0.14)">
       <use xlink:href="#ArialMT-35"/>
       <use xlink:href="#ArialMT-30" x="55.615234"/>
      </g>
     </g>
    </g>
    <g id="xtick_5">
     <g id="line2d_5">
      <g>
       <use xlink:href="#m488335efbf" x="540.499613" y="350.2" style="stroke: #000000; stroke-width: 0.8"/>
      </g>
     </g>
     <g id="text_5">
      <!-- 100 -->
      <g transform="translate(528.821644 367.220937) scale(0.14 -0.14)">
       <use xlink:href="#ArialMT-31"/>
       <use xlink:href="#ArialMT-30" x="55.615234"/>
       <use xlink:href="#ArialMT-30" x="111.230469"/>
      </g>
     </g>
    </g>
    <g id="text_6">
     <!-- Combined Score (positive: upregulated, negative: downregulated) -->
     <g transform="translate(248.350344 384.195) scale(0.14 -0.14)">
      <defs>
       <path id="ArialMT-43" d="M 3763 1606 
L 4369 1453 
Q 4178 706 3683 314 
Q 3188 -78 2472 -78 
Q 1731 -78 1267 223 
Q 803 525 561 1097 
Q 319 1669 319 2325 
Q 319 3041 592 3573 
Q 866 4106 1370 4382 
Q 1875 4659 2481 4659 
Q 3169 4659 3637 4309 
Q 4106 3959 4291 3325 
L 3694 3184 
Q 3534 3684 3231 3912 
Q 2928 4141 2469 4141 
Q 1941 4141 1586 3887 
Q 1231 3634 1087 3207 
Q 944 2781 944 2328 
Q 944 1744 1114 1308 
Q 1284 872 1643 656 
Q 2003 441 2422 441 
Q 2931 441 3284 734 
Q 3638 1028 3763 1606 
z
" transform="scale(0.015625)"/>
       <path id="ArialMT-6f" d="M 213 1659 
Q 213 2581 725 3025 
Q 1153 3394 1769 3394 
Q 2453 3394 2887 2945 
Q 3322 2497 3322 1706 
Q 3322 1066 3130 698 
Q 2938 331 2570 128 
Q 2203 -75 1769 -75 
Q 1072 -75 642 372 
Q 213 819 213 1659 
z
M 791 1659 
Q 791 1022 1069 705 
Q 1347 388 1769 388 
Q 2188 388 2466 706 
Q 2744 1025 2744 1678 
Q 2744 2294 2464 2611 
Q 2184 2928 1769 2928 
Q 1347 2928 1069 2612 
Q 791 2297 791 1659 
z
" transform="scale(0.015625)"/>
       <path id="ArialMT-6d" d="M 422 0 
L 422 3319 
L 925 3319 
L 925 2853 
Q 1081 3097 1340 3245 
Q 1600 3394 1931 3394 
Q 2300 3394 2536 3241 
Q 2772 3088 2869 2813 
Q 3263 3394 3894 3394 
Q 4388 3394 4653 3120 
Q 4919 2847 4919 2278 
L 4919 0 
L 4359 0 
L 4359 2091 
Q 4359 2428 4304 2576 
Q 4250 2725 4106 2815 
Q 3963 2906 3769 2906 
Q 3419 2906 3187 2673 
Q 2956 2441 2956 1928 
L 2956 0 
L 2394 0 
L 2394 2156 
Q 2394 2531 2256 2718 
Q 2119 2906 1806 2906 
Q 1569 2906 1367 2781 
Q 1166 2656 1075 2415 
Q 984 2175 984 1722 
L 984 0 
L 422 0 
z
" transform="scale(0.015625)"/>
       <path id="ArialMT-62" d="M 941 0 
L 419 0 
L 419 4581 
L 981 4581 
L 981 2947 
Q 1338 3394 1891 3394 
Q 2197 3394 2470 3270 
Q 2744 3147 2920 2923 
Q 3097 2700 3197 2384 
Q 3297 2069 3297 1709 
Q 3297 856 2875 390 
Q 2453 -75 1863 -75 
Q 1275 -75 941 416 
L 941 0 
z
M 934 1684 
Q 934 1088 1097 822 
Q 1363 388 1816 388 
Q 2184 388 2453 708 
Q 2722 1028 2722 1663 
Q 2722 2313 2464 2622 
Q 2206 2931 1841 2931 
Q 1472 2931 1203 2611 
Q 934 2291 934 1684 
z
" transform="scale(0.015625)"/>
       <path id="ArialMT-69" d="M 425 3934 
L 425 4581 
L 988 4581 
L 988 3934 
L 425 3934 
z
M 425 0 
L 425 3319 
L 988 3319 
L 988 0 
L 425 0 
z
" transform="scale(0.015625)"/>
       <path id="ArialMT-6e" d="M 422 0 
L 422 3319 
L 928 3319 
L 928 2847 
Q 1294 3394 1984 3394 
Q 2284 3394 2536 3286 
Q 2788 3178 2913 3003 
Q 3038 2828 3088 2588 
Q 3119 2431 3119 2041 
L 3119 0 
L 2556 0 
L 2556 2019 
Q 2556 2363 2490 2533 
Q 2425 2703 2258 2804 
Q 2091 2906 1866 2906 
Q 1506 2906 1245 2678 
Q 984 2450 984 1813 
L 984 0 
L 422 0 
z
" transform="scale(0.015625)"/>
       <path id="ArialMT-65" d="M 2694 1069 
L 3275 997 
Q 3138 488 2766 206 
Q 2394 -75 1816 -75 
Q 1088 -75 661 373 
Q 234 822 234 1631 
Q 234 2469 665 2931 
Q 1097 3394 1784 3394 
Q 2450 3394 2872 2941 
Q 3294 2488 3294 1666 
Q 3294 1616 3291 1516 
L 816 1516 
Q 847 969 1125 678 
Q 1403 388 1819 388 
Q 2128 388 2347 550 
Q 2566 713 2694 1069 
z
M 847 1978 
L 2700 1978 
Q 2663 2397 2488 2606 
Q 2219 2931 1791 2931 
Q 1403 2931 1139 2672 
Q 875 2413 847 1978 
z
" transform="scale(0.015625)"/>
       <path id="ArialMT-64" d="M 2575 0 
L 2575 419 
Q 2259 -75 1647 -75 
Q 1250 -75 917 144 
Q 584 363 401 755 
Q 219 1147 219 1656 
Q 219 2153 384 2558 
Q 550 2963 881 3178 
Q 1213 3394 1622 3394 
Q 1922 3394 2156 3267 
Q 2391 3141 2538 2938 
L 2538 4581 
L 3097 4581 
L 3097 0 
L 2575 0 
z
M 797 1656 
Q 797 1019 1065 703 
Q 1334 388 1700 388 
Q 2069 388 2326 689 
Q 2584 991 2584 1609 
Q 2584 2291 2321 2609 
Q 2059 2928 1675 2928 
Q 1300 2928 1048 2622 
Q 797 2316 797 1656 
z
" transform="scale(0.015625)"/>
       <path id="ArialMT-20" transform="scale(0.015625)"/>
       <path id="ArialMT-53" d="M 288 1472 
L 859 1522 
Q 900 1178 1048 958 
Q 1197 738 1509 602 
Q 1822 466 2213 466 
Q 2559 466 2825 569 
Q 3091 672 3220 851 
Q 3350 1031 3350 1244 
Q 3350 1459 3225 1620 
Q 3100 1781 2813 1891 
Q 2628 1963 1997 2114 
Q 1366 2266 1113 2400 
Q 784 2572 623 2826 
Q 463 3081 463 3397 
Q 463 3744 659 4045 
Q 856 4347 1234 4503 
Q 1613 4659 2075 4659 
Q 2584 4659 2973 4495 
Q 3363 4331 3572 4012 
Q 3781 3694 3797 3291 
L 3216 3247 
Q 3169 3681 2898 3903 
Q 2628 4125 2100 4125 
Q 1550 4125 1298 3923 
Q 1047 3722 1047 3438 
Q 1047 3191 1225 3031 
Q 1400 2872 2139 2705 
Q 2878 2538 3153 2413 
Q 3553 2228 3743 1945 
Q 3934 1663 3934 1294 
Q 3934 928 3725 604 
Q 3516 281 3123 101 
Q 2731 -78 2241 -78 
Q 1619 -78 1198 103 
Q 778 284 539 648 
Q 300 1013 288 1472 
z
" transform="scale(0.015625)"/>
       <path id="ArialMT-63" d="M 2588 1216 
L 3141 1144 
Q 3050 572 2676 248 
Q 2303 -75 1759 -75 
Q 1078 -75 664 370 
Q 250 816 250 1647 
Q 250 2184 428 2587 
Q 606 2991 970 3192 
Q 1334 3394 1763 3394 
Q 2303 3394 2647 3120 
Q 2991 2847 3088 2344 
L 2541 2259 
Q 2463 2594 2264 2762 
Q 2066 2931 1784 2931 
Q 1359 2931 1093 2626 
Q 828 2322 828 1663 
Q 828 994 1084 691 
Q 1341 388 1753 388 
Q 2084 388 2306 591 
Q 2528 794 2588 1216 
z
" transform="scale(0.015625)"/>
       <path id="ArialMT-72" d="M 416 0 
L 416 3319 
L 922 3319 
L 922 2816 
Q 1116 3169 1280 3281 
Q 1444 3394 1641 3394 
Q 1925 3394 2219 3213 
L 2025 2691 
Q 1819 2813 1613 2813 
Q 1428 2813 1281 2702 
Q 1134 2591 1072 2394 
Q 978 2094 978 1738 
L 978 0 
L 416 0 
z
" transform="scale(0.015625)"/>
       <path id="ArialMT-28" d="M 1497 -1347 
Q 1031 -759 709 28 
Q 388 816 388 1659 
Q 388 2403 628 3084 
Q 909 3875 1497 4659 
L 1900 4659 
Q 1522 4009 1400 3731 
Q 1209 3300 1100 2831 
Q 966 2247 966 1656 
Q 966 153 1900 -1347 
L 1497 -1347 
z
" transform="scale(0.015625)"/>
       <path id="ArialMT-70" d="M 422 -1272 
L 422 3319 
L 934 3319 
L 934 2888 
Q 1116 3141 1344 3267 
Q 1572 3394 1897 3394 
Q 2322 3394 2647 3175 
Q 2972 2956 3137 2557 
Q 3303 2159 3303 1684 
Q 3303 1175 3120 767 
Q 2938 359 2589 142 
Q 2241 -75 1856 -75 
Q 1575 -75 1351 44 
Q 1128 163 984 344 
L 984 -1272 
L 422 -1272 
z
M 931 1641 
Q 931 1000 1190 694 
Q 1450 388 1819 388 
Q 2194 388 2461 705 
Q 2728 1022 2728 1688 
Q 2728 2322 2467 2637 
Q 2206 2953 1844 2953 
Q 1484 2953 1207 2617 
Q 931 2281 931 1641 
z
" transform="scale(0.015625)"/>
       <path id="ArialMT-73" d="M 197 991 
L 753 1078 
Q 800 744 1014 566 
Q 1228 388 1613 388 
Q 2000 388 2187 545 
Q 2375 703 2375 916 
Q 2375 1106 2209 1216 
Q 2094 1291 1634 1406 
Q 1016 1563 777 1677 
Q 538 1791 414 1992 
Q 291 2194 291 2438 
Q 291 2659 392 2848 
Q 494 3038 669 3163 
Q 800 3259 1026 3326 
Q 1253 3394 1513 3394 
Q 1903 3394 2198 3281 
Q 2494 3169 2634 2976 
Q 2775 2784 2828 2463 
L 2278 2388 
Q 2241 2644 2061 2787 
Q 1881 2931 1553 2931 
Q 1166 2931 1000 2803 
Q 834 2675 834 2503 
Q 834 2394 903 2306 
Q 972 2216 1119 2156 
Q 1203 2125 1616 2013 
Q 2213 1853 2448 1751 
Q 2684 1650 2818 1456 
Q 2953 1263 2953 975 
Q 2953 694 2789 445 
Q 2625 197 2315 61 
Q 2006 -75 1616 -75 
Q 969 -75 630 194 
Q 291 463 197 991 
z
" transform="scale(0.015625)"/>
       <path id="ArialMT-74" d="M 1650 503 
L 1731 6 
Q 1494 -44 1306 -44 
Q 1000 -44 831 53 
Q 663 150 594 308 
Q 525 466 525 972 
L 525 2881 
L 113 2881 
L 113 3319 
L 525 3319 
L 525 4141 
L 1084 4478 
L 1084 3319 
L 1650 3319 
L 1650 2881 
L 1084 2881 
L 1084 941 
Q 1084 700 1114 631 
Q 1144 563 1211 522 
Q 1278 481 1403 481 
Q 1497 481 1650 503 
z
" transform="scale(0.015625)"/>
       <path id="ArialMT-76" d="M 1344 0 
L 81 3319 
L 675 3319 
L 1388 1331 
Q 1503 1009 1600 663 
Q 1675 925 1809 1294 
L 2547 3319 
L 3125 3319 
L 1869 0 
L 1344 0 
z
" transform="scale(0.015625)"/>
       <path id="ArialMT-3a" d="M 578 2678 
L 578 3319 
L 1219 3319 
L 1219 2678 
L 578 2678 
z
M 578 0 
L 578 641 
L 1219 641 
L 1219 0 
L 578 0 
z
" transform="scale(0.015625)"/>
       <path id="ArialMT-75" d="M 2597 0 
L 2597 488 
Q 2209 -75 1544 -75 
Q 1250 -75 995 37 
Q 741 150 617 320 
Q 494 491 444 738 
Q 409 903 409 1263 
L 409 3319 
L 972 3319 
L 972 1478 
Q 972 1038 1006 884 
Q 1059 663 1231 536 
Q 1403 409 1656 409 
Q 1909 409 2131 539 
Q 2353 669 2445 892 
Q 2538 1116 2538 1541 
L 2538 3319 
L 3100 3319 
L 3100 0 
L 2597 0 
z
" transform="scale(0.015625)"/>
       <path id="ArialMT-67" d="M 319 -275 
L 866 -356 
Q 900 -609 1056 -725 
Q 1266 -881 1628 -881 
Q 2019 -881 2231 -725 
Q 2444 -569 2519 -288 
Q 2563 -116 2559 434 
Q 2191 0 1641 0 
Q 956 0 581 494 
Q 206 988 206 1678 
Q 206 2153 378 2554 
Q 550 2956 876 3175 
Q 1203 3394 1644 3394 
Q 2231 3394 2613 2919 
L 2613 3319 
L 3131 3319 
L 3131 450 
Q 3131 -325 2973 -648 
Q 2816 -972 2473 -1159 
Q 2131 -1347 1631 -1347 
Q 1038 -1347 672 -1080 
Q 306 -813 319 -275 
z
M 784 1719 
Q 784 1066 1043 766 
Q 1303 466 1694 466 
Q 2081 466 2343 764 
Q 2606 1063 2606 1700 
Q 2606 2309 2336 2618 
Q 2066 2928 1684 2928 
Q 1309 2928 1046 2623 
Q 784 2319 784 1719 
z
" transform="scale(0.015625)"/>
       <path id="ArialMT-6c" d="M 409 0 
L 409 4581 
L 972 4581 
L 972 0 
L 409 0 
z
" transform="scale(0.015625)"/>
       <path id="ArialMT-61" d="M 2588 409 
Q 2275 144 1986 34 
Q 1697 -75 1366 -75 
Q 819 -75 525 192 
Q 231 459 231 875 
Q 231 1119 342 1320 
Q 453 1522 633 1644 
Q 813 1766 1038 1828 
Q 1203 1872 1538 1913 
Q 2219 1994 2541 2106 
Q 2544 2222 2544 2253 
Q 2544 2597 2384 2738 
Q 2169 2928 1744 2928 
Q 1347 2928 1158 2789 
Q 969 2650 878 2297 
L 328 2372 
Q 403 2725 575 2942 
Q 747 3159 1072 3276 
Q 1397 3394 1825 3394 
Q 2250 3394 2515 3294 
Q 2781 3194 2906 3042 
Q 3031 2891 3081 2659 
Q 3109 2516 3109 2141 
L 3109 1391 
Q 3109 606 3145 398 
Q 3181 191 3288 0 
L 2700 0 
Q 2613 175 2588 409 
z
M 2541 1666 
Q 2234 1541 1622 1453 
Q 1275 1403 1131 1340 
Q 988 1278 909 1158 
Q 831 1038 831 891 
Q 831 666 1001 516 
Q 1172 366 1500 366 
Q 1825 366 2078 508 
Q 2331 650 2450 897 
Q 2541 1088 2541 1459 
L 2541 1666 
z
" transform="scale(0.015625)"/>
       <path id="ArialMT-2c" d="M 569 0 
L 569 641 
L 1209 641 
L 1209 0 
Q 1209 -353 1084 -570 
Q 959 -788 688 -906 
L 531 -666 
Q 709 -588 793 -436 
Q 878 -284 888 0 
L 569 0 
z
" transform="scale(0.015625)"/>
       <path id="ArialMT-77" d="M 1034 0 
L 19 3319 
L 600 3319 
L 1128 1403 
L 1325 691 
Q 1338 744 1497 1375 
L 2025 3319 
L 2603 3319 
L 3100 1394 
L 3266 759 
L 3456 1400 
L 4025 3319 
L 4572 3319 
L 3534 0 
L 2950 0 
L 2422 1988 
L 2294 2553 
L 1622 0 
L 1034 0 
z
" transform="scale(0.015625)"/>
       <path id="ArialMT-29" d="M 791 -1347 
L 388 -1347 
Q 1322 153 1322 1656 
Q 1322 2244 1188 2822 
Q 1081 3291 891 3722 
Q 769 4003 388 4659 
L 791 4659 
Q 1378 3875 1659 3084 
Q 1900 2403 1900 1659 
Q 1900 816 1576 28 
Q 1253 -759 791 -1347 
z
" transform="scale(0.015625)"/>
      </defs>
      <use xlink:href="#ArialMT-43"/>
      <use xlink:href="#ArialMT-6f" x="72.216797"/>
      <use xlink:href="#ArialMT-6d" x="127.832031"/>
      <use xlink:href="#ArialMT-62" x="211.132812"/>
      <use xlink:href="#ArialMT-69" x="266.748047"/>
      <use xlink:href="#ArialMT-6e" x="288.964844"/>
      <use xlink:href="#ArialMT-65" x="344.580078"/>
      <use xlink:href="#ArialMT-64" x="400.195312"/>
      <use xlink:href="#ArialMT-20" x="455.810547"/>
      <use xlink:href="#ArialMT-53" x="483.59375"/>
      <use xlink:href="#ArialMT-63" x="550.292969"/>
      <use xlink:href="#ArialMT-6f" x="600.292969"/>
      <use xlink:href="#ArialMT-72" x="655.908203"/>
      <use xlink:href="#ArialMT-65" x="689.208984"/>
      <use xlink:href="#ArialMT-20" x="744.824219"/>
      <use xlink:href="#ArialMT-28" x="772.607422"/>
      <use xlink:href="#ArialMT-70" x="805.908203"/>
      <use xlink:href="#ArialMT-6f" x="861.523438"/>
      <use xlink:href="#ArialMT-73" x="917.138672"/>
      <use xlink:href="#ArialMT-69" x="967.138672"/>
      <use xlink:href="#ArialMT-74" x="989.355469"/>
      <use xlink:href="#ArialMT-69" x="1017.138672"/>
      <use xlink:href="#ArialMT-76" x="1039.355469"/>
      <use xlink:href="#ArialMT-65" x="1089.355469"/>
      <use xlink:href="#ArialMT-3a" x="1144.970703"/>
      <use xlink:href="#ArialMT-20" x="1172.753906"/>
      <use xlink:href="#ArialMT-75" x="1200.537109"/>
      <use xlink:href="#ArialMT-70" x="1256.152344"/>
      <use xlink:href="#ArialMT-72" x="1311.767578"/>
      <use xlink:href="#ArialMT-65" x="1345.068359"/>
      <use xlink:href="#ArialMT-67" x="1400.683594"/>
      <use xlink:href="#ArialMT-75" x="1456.298828"/>
      <use xlink:href="#ArialMT-6c" x="1511.914062"/>
      <use xlink:href="#ArialMT-61" x="1534.130859"/>
      <use xlink:href="#ArialMT-74" x="1589.746094"/>
      <use xlink:href="#ArialMT-65" x="1617.529297"/>
      <use xlink:href="#ArialMT-64" x="1673.144531"/>
      <use xlink:href="#ArialMT-2c" x="1728.759766"/>
      <use xlink:href="#ArialMT-20" x="1756.542969"/>
      <use xlink:href="#ArialMT-6e" x="1784.326172"/>
      <use xlink:href="#ArialMT-65" x="1839.941406"/>
      <use xlink:href="#ArialMT-67" x="1895.556641"/>
      <use xlink:href="#ArialMT-61" x="1951.171875"/>
      <use xlink:href="#ArialMT-74" x="2006.787109"/>
      <use xlink:href="#ArialMT-69" x="2034.570312"/>
      <use xlink:href="#ArialMT-76" x="2056.787109"/>
      <use xlink:href="#ArialMT-65" x="2106.787109"/>
      <use xlink:href="#ArialMT-3a" x="2162.402344"/>
      <use xlink:href="#ArialMT-20" x="2190.185547"/>
      <use xlink:href="#ArialMT-64" x="2217.96875"/>
      <use xlink:href="#ArialMT-6f" x="2273.583984"/>
      <use xlink:href="#ArialMT-77" x="2329.199219"/>
      <use xlink:href="#ArialMT-6e" x="2401.416016"/>
      <use xlink:href="#ArialMT-72" x="2457.03125"/>
      <use xlink:href="#ArialMT-65" x="2490.332031"/>
      <use xlink:href="#ArialMT-67" x="2545.947266"/>
      <use xlink:href="#ArialMT-75" x="2601.5625"/>
      <use xlink:href="#ArialMT-6c" x="2657.177734"/>
      <use xlink:href="#ArialMT-61" x="2679.394531"/>
      <use xlink:href="#ArialMT-74" x="2735.009766"/>
      <use xlink:href="#ArialMT-65" x="2762.792969"/>
      <use xlink:href="#ArialMT-64" x="2818.408203"/>
      <use xlink:href="#ArialMT-29" x="2874.023438"/>
     </g>
    </g>
   </g>
   <g id="matplotlib.axis_2">
    <g id="ytick_1">
     <g id="line2d_6">
      <defs>
       <path id="mc3b490cb9d" d="M 0 0 
L -3.5 0 
" style="stroke: #000000; stroke-width: 0.8"/>
      </defs>
      <g>
       <use xlink:href="#mc3b490cb9d" x="341.92" y="335.721818" style="stroke: #000000; stroke-width: 0.8"/>
      </g>
     </g>
     <g id="text_7">
      <!-- HALLMARK_ALLOGRAFT_REJECTION -->
      <g transform="translate(81.303438 340.821974) scale(0.14 -0.14)">
       <defs>
        <path id="ArialMT-48" d="M 513 0 
L 513 4581 
L 1119 4581 
L 1119 2700 
L 3500 2700 
L 3500 4581 
L 4106 4581 
L 4106 0 
L 3500 0 
L 3500 2159 
L 1119 2159 
L 1119 0 
L 513 0 
z
" transform="scale(0.015625)"/>
        <path id="ArialMT-41" d="M -9 0 
L 1750 4581 
L 2403 4581 
L 4278 0 
L 3588 0 
L 3053 1388 
L 1138 1388 
L 634 0 
L -9 0 
z
M 1313 1881 
L 2866 1881 
L 2388 3150 
Q 2169 3728 2063 4100 
Q 1975 3659 1816 3225 
L 1313 1881 
z
" transform="scale(0.015625)"/>
        <path id="ArialMT-4c" d="M 469 0 
L 469 4581 
L 1075 4581 
L 1075 541 
L 3331 541 
L 3331 0 
L 469 0 
z
" transform="scale(0.015625)"/>
        <path id="ArialMT-4d" d="M 475 0 
L 475 4581 
L 1388 4581 
L 2472 1338 
Q 2622 884 2691 659 
Q 2769 909 2934 1394 
L 4031 4581 
L 4847 4581 
L 4847 0 
L 4263 0 
L 4263 3834 
L 2931 0 
L 2384 0 
L 1059 3900 
L 1059 0 
L 475 0 
z
" transform="scale(0.015625)"/>
        <path id="ArialMT-52" d="M 503 0 
L 503 4581 
L 2534 4581 
Q 3147 4581 3465 4457 
Q 3784 4334 3975 4021 
Q 4166 3709 4166 3331 
Q 4166 2844 3850 2509 
Q 3534 2175 2875 2084 
Q 3116 1969 3241 1856 
Q 3506 1613 3744 1247 
L 4541 0 
L 3778 0 
L 3172 953 
Q 2906 1366 2734 1584 
Q 2563 1803 2427 1890 
Q 2291 1978 2150 2013 
Q 2047 2034 1813 2034 
L 1109 2034 
L 1109 0 
L 503 0 
z
M 1109 2559 
L 2413 2559 
Q 2828 2559 3062 2645 
Q 3297 2731 3419 2920 
Q 3541 3109 3541 3331 
Q 3541 3656 3305 3865 
Q 3069 4075 2559 4075 
L 1109 4075 
L 1109 2559 
z
" transform="scale(0.015625)"/>
        <path id="ArialMT-4b" d="M 469 0 
L 469 4581 
L 1075 4581 
L 1075 2309 
L 3350 4581 
L 4172 4581 
L 2250 2725 
L 4256 0 
L 3456 0 
L 1825 2319 
L 1075 1588 
L 1075 0 
L 469 0 
z
" transform="scale(0.015625)"/>
        <path id="ArialMT-5f" d="M -97 -1272 
L -97 -866 
L 3631 -866 
L 3631 -1272 
L -97 -1272 
z
" transform="scale(0.015625)"/>
        <path id="ArialMT-4f" d="M 309 2231 
Q 309 3372 921 4017 
Q 1534 4663 2503 4663 
Q 3138 4663 3647 4359 
Q 4156 4056 4423 3514 
Q 4691 2972 4691 2284 
Q 4691 1588 4409 1038 
Q 4128 488 3612 205 
Q 3097 -78 2500 -78 
Q 1853 -78 1343 234 
Q 834 547 571 1087 
Q 309 1628 309 2231 
z
M 934 2222 
Q 934 1394 1379 917 
Q 1825 441 2497 441 
Q 3181 441 3623 922 
Q 4066 1403 4066 2288 
Q 4066 2847 3877 3264 
Q 3688 3681 3323 3911 
Q 2959 4141 2506 4141 
Q 1863 4141 1398 3698 
Q 934 3256 934 2222 
z
" transform="scale(0.015625)"/>
        <path id="ArialMT-47" d="M 2638 1797 
L 2638 2334 
L 4578 2338 
L 4578 638 
Q 4131 281 3656 101 
Q 3181 -78 2681 -78 
Q 2006 -78 1454 211 
Q 903 500 622 1047 
Q 341 1594 341 2269 
Q 341 2938 620 3517 
Q 900 4097 1425 4378 
Q 1950 4659 2634 4659 
Q 3131 4659 3532 4498 
Q 3934 4338 4162 4050 
Q 4391 3763 4509 3300 
L 3963 3150 
Q 3859 3500 3706 3700 
Q 3553 3900 3268 4020 
Q 2984 4141 2638 4141 
Q 2222 4141 1919 4014 
Q 1616 3888 1430 3681 
Q 1244 3475 1141 3228 
Q 966 2803 966 2306 
Q 966 1694 1177 1281 
Q 1388 869 1791 669 
Q 2194 469 2647 469 
Q 3041 469 3416 620 
Q 3791 772 3984 944 
L 3984 1797 
L 2638 1797 
z
" transform="scale(0.015625)"/>
        <path id="ArialMT-46" d="M 525 0 
L 525 4581 
L 3616 4581 
L 3616 4041 
L 1131 4041 
L 1131 2622 
L 3281 2622 
L 3281 2081 
L 1131 2081 
L 1131 0 
L 525 0 
z
" transform="scale(0.015625)"/>
        <path id="ArialMT-54" d="M 1659 0 
L 1659 4041 
L 150 4041 
L 150 4581 
L 3781 4581 
L 3781 4041 
L 2266 4041 
L 2266 0 
L 1659 0 
z
" transform="scale(0.015625)"/>
        <path id="ArialMT-45" d="M 506 0 
L 506 4581 
L 3819 4581 
L 3819 4041 
L 1113 4041 
L 1113 2638 
L 3647 2638 
L 3647 2100 
L 1113 2100 
L 1113 541 
L 3925 541 
L 3925 0 
L 506 0 
z
" transform="scale(0.015625)"/>
        <path id="ArialMT-4a" d="M 184 1300 
L 731 1375 
Q 753 850 928 656 
Q 1103 463 1413 463 
Q 1641 463 1806 567 
Q 1972 672 2034 851 
Q 2097 1031 2097 1425 
L 2097 4581 
L 2703 4581 
L 2703 1459 
Q 2703 884 2564 568 
Q 2425 253 2123 87 
Q 1822 -78 1416 -78 
Q 813 -78 492 269 
Q 172 616 184 1300 
z
" transform="scale(0.015625)"/>
        <path id="ArialMT-49" d="M 597 0 
L 597 4581 
L 1203 4581 
L 1203 0 
L 597 0 
z
" transform="scale(0.015625)"/>
        <path id="ArialMT-4e" d="M 488 0 
L 488 4581 
L 1109 4581 
L 3516 984 
L 3516 4581 
L 4097 4581 
L 4097 0 
L 3475 0 
L 1069 3600 
L 1069 0 
L 488 0 
z
" transform="scale(0.015625)"/>
       </defs>
       <use xlink:href="#ArialMT-48"/>
       <use xlink:href="#ArialMT-41" x="72.216797"/>
       <use xlink:href="#ArialMT-4c" x="138.916016"/>
       <use xlink:href="#ArialMT-4c" x="194.53125"/>
       <use xlink:href="#ArialMT-4d" x="250.146484"/>
       <use xlink:href="#ArialMT-41" x="333.447266"/>
       <use xlink:href="#ArialMT-52" x="400.146484"/>
       <use xlink:href="#ArialMT-4b" x="472.363281"/>
       <use xlink:href="#ArialMT-5f" x="539.0625"/>
       <use xlink:href="#ArialMT-41" x="594.677734"/>
       <use xlink:href="#ArialMT-4c" x="661.376953"/>
       <use xlink:href="#ArialMT-4c" x="716.992188"/>
       <use xlink:href="#ArialMT-4f" x="772.607422"/>
       <use xlink:href="#ArialMT-47" x="850.390625"/>
       <use xlink:href="#ArialMT-52" x="928.173828"/>
       <use xlink:href="#ArialMT-41" x="1000.390625"/>
       <use xlink:href="#ArialMT-46" x="1067.089844"/>
       <use xlink:href="#ArialMT-54" x="1128.173828"/>
       <use xlink:href="#ArialMT-5f" x="1189.257812"/>
       <use xlink:href="#ArialMT-52" x="1244.873047"/>
       <use xlink:href="#ArialMT-45" x="1317.089844"/>
       <use xlink:href="#ArialMT-4a" x="1383.789062"/>
       <use xlink:href="#ArialMT-45" x="1433.789062"/>
       <use xlink:href="#ArialMT-43" x="1500.488281"/>
       <use xlink:href="#ArialMT-54" x="1572.705078"/>
       <use xlink:href="#ArialMT-49" x="1633.789062"/>
       <use xlink:href="#ArialMT-4f" x="1661.572266"/>
       <use xlink:href="#ArialMT-4e" x="1739.355469"/>
      </g>
     </g>
    </g>
    <g id="ytick_2">
     <g id="line2d_7">
      <g>
       <use xlink:href="#mc3b490cb9d" x="341.92" y="294.355584" style="stroke: #000000; stroke-width: 0.8"/>
      </g>
     </g>
     <g id="text_8">
      <!-- HALLMARK_COMPLEMENT -->
      <g transform="translate(152.880625 299.455741) scale(0.14 -0.14)">
       <defs>
        <path id="ArialMT-50" d="M 494 0 
L 494 4581 
L 2222 4581 
Q 2678 4581 2919 4538 
Q 3256 4481 3484 4323 
Q 3713 4166 3852 3881 
Q 3991 3597 3991 3256 
Q 3991 2672 3619 2267 
Q 3247 1863 2275 1863 
L 1100 1863 
L 1100 0 
L 494 0 
z
M 1100 2403 
L 2284 2403 
Q 2872 2403 3119 2622 
Q 3366 2841 3366 3238 
Q 3366 3525 3220 3729 
Q 3075 3934 2838 4000 
Q 2684 4041 2272 4041 
L 1100 4041 
L 1100 2403 
z
" transform="scale(0.015625)"/>
       </defs>
       <use xlink:href="#ArialMT-48"/>
       <use xlink:href="#ArialMT-41" x="72.216797"/>
       <use xlink:href="#ArialMT-4c" x="138.916016"/>
       <use xlink:href="#ArialMT-4c" x="194.53125"/>
       <use xlink:href="#ArialMT-4d" x="250.146484"/>
       <use xlink:href="#ArialMT-41" x="333.447266"/>
       <use xlink:href="#ArialMT-52" x="400.146484"/>
       <use xlink:href="#ArialMT-4b" x="472.363281"/>
       <use xlink:href="#ArialMT-5f" x="539.0625"/>
       <use xlink:href="#ArialMT-43" x="594.677734"/>
       <use xlink:href="#ArialMT-4f" x="666.894531"/>
       <use xlink:href="#ArialMT-4d" x="744.677734"/>
       <use xlink:href="#ArialMT-50" x="827.978516"/>
       <use xlink:href="#ArialMT-4c" x="894.677734"/>
       <use xlink:href="#ArialMT-45" x="950.292969"/>
       <use xlink:href="#ArialMT-4d" x="1016.992188"/>
       <use xlink:href="#ArialMT-45" x="1100.292969"/>
       <use xlink:href="#ArialMT-4e" x="1166.992188"/>
       <use xlink:href="#ArialMT-54" x="1239.208984"/>
      </g>
     </g>
    </g>
    <g id="ytick_3">
     <g id="line2d_8">
      <g>
       <use xlink:href="#mc3b490cb9d" x="341.92" y="252.989351" style="stroke: #000000; stroke-width: 0.8"/>
      </g>
     </g>
     <g id="text_9">
      <!-- HALLMARK_IL2_STAT5_SIGNALING -->
      <g transform="translate(98.895312 258.085132) scale(0.14 -0.14)">
       <defs>
        <path id="ArialMT-32" d="M 3222 541 
L 3222 0 
L 194 0 
Q 188 203 259 391 
Q 375 700 629 1000 
Q 884 1300 1366 1694 
Q 2113 2306 2375 2664 
Q 2638 3022 2638 3341 
Q 2638 3675 2398 3904 
Q 2159 4134 1775 4134 
Q 1369 4134 1125 3890 
Q 881 3647 878 3216 
L 300 3275 
Q 359 3922 746 4261 
Q 1134 4600 1788 4600 
Q 2447 4600 2831 4234 
Q 3216 3869 3216 3328 
Q 3216 3053 3103 2787 
Q 2991 2522 2730 2228 
Q 2469 1934 1863 1422 
Q 1356 997 1212 845 
Q 1069 694 975 541 
L 3222 541 
z
" transform="scale(0.015625)"/>
       </defs>
       <use xlink:href="#ArialMT-48"/>
       <use xlink:href="#ArialMT-41" x="72.216797"/>
       <use xlink:href="#ArialMT-4c" x="138.916016"/>
       <use xlink:href="#ArialMT-4c" x="194.53125"/>
       <use xlink:href="#ArialMT-4d" x="250.146484"/>
       <use xlink:href="#ArialMT-41" x="333.447266"/>
       <use xlink:href="#ArialMT-52" x="400.146484"/>
       <use xlink:href="#ArialMT-4b" x="472.363281"/>
       <use xlink:href="#ArialMT-5f" x="539.0625"/>
       <use xlink:href="#ArialMT-49" x="594.677734"/>
       <use xlink:href="#ArialMT-4c" x="622.460938"/>
       <use xlink:href="#ArialMT-32" x="678.076172"/>
       <use xlink:href="#ArialMT-5f" x="733.691406"/>
       <use xlink:href="#ArialMT-53" x="789.306641"/>
       <use xlink:href="#ArialMT-54" x="856.005859"/>
       <use xlink:href="#ArialMT-41" x="909.714844"/>
       <use xlink:href="#ArialMT-54" x="969.039062"/>
       <use xlink:href="#ArialMT-35" x="1030.123047"/>
       <use xlink:href="#ArialMT-5f" x="1085.738281"/>
       <use xlink:href="#ArialMT-53" x="1141.353516"/>
       <use xlink:href="#ArialMT-49" x="1208.052734"/>
       <use xlink:href="#ArialMT-47" x="1235.835938"/>
       <use xlink:href="#ArialMT-4e" x="1313.619141"/>
       <use xlink:href="#ArialMT-41" x="1385.835938"/>
       <use xlink:href="#ArialMT-4c" x="1452.535156"/>
       <use xlink:href="#ArialMT-49" x="1508.150391"/>
       <use xlink:href="#ArialMT-4e" x="1535.933594"/>
       <use xlink:href="#ArialMT-47" x="1608.150391"/>
      </g>
     </g>
    </g>
    <g id="ytick_4">
     <g id="line2d_9">
      <g>
       <use xlink:href="#mc3b490cb9d" x="341.92" y="211.623117" style="stroke: #000000; stroke-width: 0.8"/>
      </g>
     </g>
     <g id="text_10">
      <!-- HALLMARK_IL6_JAK_STAT3_SIGNALING -->
      <g transform="translate(65.433125 216.718898) scale(0.14 -0.14)">
       <defs>
        <path id="ArialMT-36" d="M 3184 3459 
L 2625 3416 
Q 2550 3747 2413 3897 
Q 2184 4138 1850 4138 
Q 1581 4138 1378 3988 
Q 1113 3794 959 3422 
Q 806 3050 800 2363 
Q 1003 2672 1297 2822 
Q 1591 2972 1913 2972 
Q 2475 2972 2870 2558 
Q 3266 2144 3266 1488 
Q 3266 1056 3080 686 
Q 2894 316 2569 119 
Q 2244 -78 1831 -78 
Q 1128 -78 684 439 
Q 241 956 241 2144 
Q 241 3472 731 4075 
Q 1159 4600 1884 4600 
Q 2425 4600 2770 4297 
Q 3116 3994 3184 3459 
z
M 888 1484 
Q 888 1194 1011 928 
Q 1134 663 1356 523 
Q 1578 384 1822 384 
Q 2178 384 2434 671 
Q 2691 959 2691 1453 
Q 2691 1928 2437 2201 
Q 2184 2475 1800 2475 
Q 1419 2475 1153 2201 
Q 888 1928 888 1484 
z
" transform="scale(0.015625)"/>
        <path id="ArialMT-33" d="M 269 1209 
L 831 1284 
Q 928 806 1161 595 
Q 1394 384 1728 384 
Q 2125 384 2398 659 
Q 2672 934 2672 1341 
Q 2672 1728 2419 1979 
Q 2166 2231 1775 2231 
Q 1616 2231 1378 2169 
L 1441 2663 
Q 1497 2656 1531 2656 
Q 1891 2656 2178 2843 
Q 2466 3031 2466 3422 
Q 2466 3731 2256 3934 
Q 2047 4138 1716 4138 
Q 1388 4138 1169 3931 
Q 950 3725 888 3313 
L 325 3413 
Q 428 3978 793 4289 
Q 1159 4600 1703 4600 
Q 2078 4600 2393 4439 
Q 2709 4278 2876 4000 
Q 3044 3722 3044 3409 
Q 3044 3113 2884 2869 
Q 2725 2625 2413 2481 
Q 2819 2388 3044 2092 
Q 3269 1797 3269 1353 
Q 3269 753 2831 336 
Q 2394 -81 1725 -81 
Q 1122 -81 723 278 
Q 325 638 269 1209 
z
" transform="scale(0.015625)"/>
       </defs>
       <use xlink:href="#ArialMT-48"/>
       <use xlink:href="#ArialMT-41" x="72.216797"/>
       <use xlink:href="#ArialMT-4c" x="138.916016"/>
       <use xlink:href="#ArialMT-4c" x="194.53125"/>
       <use xlink:href="#ArialMT-4d" x="250.146484"/>
       <use xlink:href="#ArialMT-41" x="333.447266"/>
       <use xlink:href="#ArialMT-52" x="400.146484"/>
       <use xlink:href="#ArialMT-4b" x="472.363281"/>
       <use xlink:href="#ArialMT-5f" x="539.0625"/>
       <use xlink:href="#ArialMT-49" x="594.677734"/>
       <use xlink:href="#ArialMT-4c" x="622.460938"/>
       <use xlink:href="#ArialMT-36" x="678.076172"/>
       <use xlink:href="#ArialMT-5f" x="733.691406"/>
       <use xlink:href="#ArialMT-4a" x="789.306641"/>
       <use xlink:href="#ArialMT-41" x="839.306641"/>
       <use xlink:href="#ArialMT-4b" x="906.005859"/>
       <use xlink:href="#ArialMT-5f" x="972.705078"/>
       <use xlink:href="#ArialMT-53" x="1028.320312"/>
       <use xlink:href="#ArialMT-54" x="1095.019531"/>
       <use xlink:href="#ArialMT-41" x="1148.728516"/>
       <use xlink:href="#ArialMT-54" x="1208.052734"/>
       <use xlink:href="#ArialMT-33" x="1269.136719"/>
       <use xlink:href="#ArialMT-5f" x="1324.751953"/>
       <use xlink:href="#ArialMT-53" x="1380.367188"/>
       <use xlink:href="#ArialMT-49" x="1447.066406"/>
       <use xlink:href="#ArialMT-47" x="1474.849609"/>
       <use xlink:href="#ArialMT-4e" x="1552.632812"/>
       <use xlink:href="#ArialMT-41" x="1624.849609"/>
       <use xlink:href="#ArialMT-4c" x="1691.548828"/>
       <use xlink:href="#ArialMT-49" x="1747.164062"/>
       <use xlink:href="#ArialMT-4e" x="1774.947266"/>
       <use xlink:href="#ArialMT-47" x="1847.164062"/>
      </g>
     </g>
    </g>
    <g id="ytick_5">
     <g id="line2d_10">
      <g>
       <use xlink:href="#mc3b490cb9d" x="341.92" y="170.256883" style="stroke: #000000; stroke-width: 0.8"/>
      </g>
     </g>
     <g id="text_11">
      <!-- HALLMARK_INFLAMMATORY_RESPONSE -->
      <g transform="translate(56.374687 175.357039) scale(0.14 -0.14)">
       <defs>
        <path id="ArialMT-59" d="M 1784 0 
L 1784 1941 
L 19 4581 
L 756 4581 
L 1659 3200 
Q 1909 2813 2125 2425 
Q 2331 2784 2625 3234 
L 3513 4581 
L 4219 4581 
L 2391 1941 
L 2391 0 
L 1784 0 
z
" transform="scale(0.015625)"/>
       </defs>
       <use xlink:href="#ArialMT-48"/>
       <use xlink:href="#ArialMT-41" x="72.216797"/>
       <use xlink:href="#ArialMT-4c" x="138.916016"/>
       <use xlink:href="#ArialMT-4c" x="194.53125"/>
       <use xlink:href="#ArialMT-4d" x="250.146484"/>
       <use xlink:href="#ArialMT-41" x="333.447266"/>
       <use xlink:href="#ArialMT-52" x="400.146484"/>
       <use xlink:href="#ArialMT-4b" x="472.363281"/>
       <use xlink:href="#ArialMT-5f" x="539.0625"/>
       <use xlink:href="#ArialMT-49" x="594.677734"/>
       <use xlink:href="#ArialMT-4e" x="622.460938"/>
       <use xlink:href="#ArialMT-46" x="694.677734"/>
       <use xlink:href="#ArialMT-4c" x="755.761719"/>
       <use xlink:href="#ArialMT-41" x="811.376953"/>
       <use xlink:href="#ArialMT-4d" x="878.076172"/>
       <use xlink:href="#ArialMT-4d" x="961.376953"/>
       <use xlink:href="#ArialMT-41" x="1044.677734"/>
       <use xlink:href="#ArialMT-54" x="1104.001953"/>
       <use xlink:href="#ArialMT-4f" x="1163.335938"/>
       <use xlink:href="#ArialMT-52" x="1241.119141"/>
       <use xlink:href="#ArialMT-59" x="1311.585938"/>
       <use xlink:href="#ArialMT-5f" x="1378.285156"/>
       <use xlink:href="#ArialMT-52" x="1433.900391"/>
       <use xlink:href="#ArialMT-45" x="1506.117188"/>
       <use xlink:href="#ArialMT-53" x="1572.816406"/>
       <use xlink:href="#ArialMT-50" x="1639.515625"/>
       <use xlink:href="#ArialMT-4f" x="1706.214844"/>
       <use xlink:href="#ArialMT-4e" x="1783.998047"/>
       <use xlink:href="#ArialMT-53" x="1856.214844"/>
       <use xlink:href="#ArialMT-45" x="1922.914062"/>
      </g>
     </g>
    </g>
    <g id="ytick_6">
     <g id="line2d_11">
      <g>
       <use xlink:href="#mc3b490cb9d" x="341.92" y="128.890649" style="stroke: #000000; stroke-width: 0.8"/>
      </g>
     </g>
     <g id="text_12">
      <!-- HALLMARK_INTERFERON_ALPHA_RESPONSE -->
      <g transform="translate(21.38125 133.990806) scale(0.14 -0.14)">
       <use xlink:href="#ArialMT-48"/>
       <use xlink:href="#ArialMT-41" x="72.216797"/>
       <use xlink:href="#ArialMT-4c" x="138.916016"/>
       <use xlink:href="#ArialMT-4c" x="194.53125"/>
       <use xlink:href="#ArialMT-4d" x="250.146484"/>
       <use xlink:href="#ArialMT-41" x="333.447266"/>
       <use xlink:href="#ArialMT-52" x="400.146484"/>
       <use xlink:href="#ArialMT-4b" x="472.363281"/>
       <use xlink:href="#ArialMT-5f" x="539.0625"/>
       <use xlink:href="#ArialMT-49" x="594.677734"/>
       <use xlink:href="#ArialMT-4e" x="622.460938"/>
       <use xlink:href="#ArialMT-54" x="694.677734"/>
       <use xlink:href="#ArialMT-45" x="755.761719"/>
       <use xlink:href="#ArialMT-52" x="822.460938"/>
       <use xlink:href="#ArialMT-46" x="894.677734"/>
       <use xlink:href="#ArialMT-45" x="955.761719"/>
       <use xlink:href="#ArialMT-52" x="1022.460938"/>
       <use xlink:href="#ArialMT-4f" x="1094.677734"/>
       <use xlink:href="#ArialMT-4e" x="1172.460938"/>
       <use xlink:href="#ArialMT-5f" x="1244.677734"/>
       <use xlink:href="#ArialMT-41" x="1300.292969"/>
       <use xlink:href="#ArialMT-4c" x="1366.992188"/>
       <use xlink:href="#ArialMT-50" x="1422.607422"/>
       <use xlink:href="#ArialMT-48" x="1489.306641"/>
       <use xlink:href="#ArialMT-41" x="1561.523438"/>
       <use xlink:href="#ArialMT-5f" x="1628.222656"/>
       <use xlink:href="#ArialMT-52" x="1683.837891"/>
       <use xlink:href="#ArialMT-45" x="1756.054688"/>
       <use xlink:href="#ArialMT-53" x="1822.753906"/>
       <use xlink:href="#ArialMT-50" x="1889.453125"/>
       <use xlink:href="#ArialMT-4f" x="1956.152344"/>
       <use xlink:href="#ArialMT-4e" x="2033.935547"/>
       <use xlink:href="#ArialMT-53" x="2106.152344"/>
       <use xlink:href="#ArialMT-45" x="2172.851562"/>
      </g>
     </g>
    </g>
    <g id="ytick_7">
     <g id="line2d_12">
      <g>
       <use xlink:href="#mc3b490cb9d" x="341.92" y="87.524416" style="stroke: #000000; stroke-width: 0.8"/>
      </g>
     </g>
     <g id="text_13">
      <!-- HALLMARK_INTERFERON_GAMMA_RESPONSE -->
      <g transform="translate(14.403125 92.624572) scale(0.14 -0.14)">
       <use xlink:href="#ArialMT-48"/>
       <use xlink:href="#ArialMT-41" x="72.216797"/>
       <use xlink:href="#ArialMT-4c" x="138.916016"/>
       <use xlink:href="#ArialMT-4c" x="194.53125"/>
       <use xlink:href="#ArialMT-4d" x="250.146484"/>
       <use xlink:href="#ArialMT-41" x="333.447266"/>
       <use xlink:href="#ArialMT-52" x="400.146484"/>
       <use xlink:href="#ArialMT-4b" x="472.363281"/>
       <use xlink:href="#ArialMT-5f" x="539.0625"/>
       <use xlink:href="#ArialMT-49" x="594.677734"/>
       <use xlink:href="#ArialMT-4e" x="622.460938"/>
       <use xlink:href="#ArialMT-54" x="694.677734"/>
       <use xlink:href="#ArialMT-45" x="755.761719"/>
       <use xlink:href="#ArialMT-52" x="822.460938"/>
       <use xlink:href="#ArialMT-46" x="894.677734"/>
       <use xlink:href="#ArialMT-45" x="955.761719"/>
       <use xlink:href="#ArialMT-52" x="1022.460938"/>
       <use xlink:href="#ArialMT-4f" x="1094.677734"/>
       <use xlink:href="#ArialMT-4e" x="1172.460938"/>
       <use xlink:href="#ArialMT-5f" x="1244.677734"/>
       <use xlink:href="#ArialMT-47" x="1300.292969"/>
       <use xlink:href="#ArialMT-41" x="1378.076172"/>
       <use xlink:href="#ArialMT-4d" x="1444.775391"/>
       <use xlink:href="#ArialMT-4d" x="1528.076172"/>
       <use xlink:href="#ArialMT-41" x="1611.376953"/>
       <use xlink:href="#ArialMT-5f" x="1678.076172"/>
       <use xlink:href="#ArialMT-52" x="1733.691406"/>
       <use xlink:href="#ArialMT-45" x="1805.908203"/>
       <use xlink:href="#ArialMT-53" x="1872.607422"/>
       <use xlink:href="#ArialMT-50" x="1939.306641"/>
       <use xlink:href="#ArialMT-4f" x="2006.005859"/>
       <use xlink:href="#ArialMT-4e" x="2083.789062"/>
       <use xlink:href="#ArialMT-53" x="2156.005859"/>
       <use xlink:href="#ArialMT-45" x="2222.705078"/>
      </g>
     </g>
    </g>
    <g id="ytick_8">
     <g id="line2d_13">
      <g>
       <use xlink:href="#mc3b490cb9d" x="341.92" y="46.158182" style="stroke: #000000; stroke-width: 0.8"/>
      </g>
     </g>
     <g id="text_14">
      <!-- HALLMARK_TNFA_SIGNALING_VIA_NFKB -->
      <g transform="translate(56.383438 51.253963) scale(0.14 -0.14)">
       <defs>
        <path id="ArialMT-56" d="M 1803 0 
L 28 4581 
L 684 4581 
L 1875 1253 
Q 2019 853 2116 503 
Q 2222 878 2363 1253 
L 3600 4581 
L 4219 4581 
L 2425 0 
L 1803 0 
z
" transform="scale(0.015625)"/>
        <path id="ArialMT-42" d="M 469 0 
L 469 4581 
L 2188 4581 
Q 2713 4581 3030 4442 
Q 3347 4303 3526 4014 
Q 3706 3725 3706 3409 
Q 3706 3116 3547 2856 
Q 3388 2597 3066 2438 
Q 3481 2316 3704 2022 
Q 3928 1728 3928 1328 
Q 3928 1006 3792 729 
Q 3656 453 3456 303 
Q 3256 153 2954 76 
Q 2653 0 2216 0 
L 469 0 
z
M 1075 2656 
L 2066 2656 
Q 2469 2656 2644 2709 
Q 2875 2778 2992 2937 
Q 3109 3097 3109 3338 
Q 3109 3566 3000 3739 
Q 2891 3913 2687 3977 
Q 2484 4041 1991 4041 
L 1075 4041 
L 1075 2656 
z
M 1075 541 
L 2216 541 
Q 2509 541 2628 563 
Q 2838 600 2978 687 
Q 3119 775 3209 942 
Q 3300 1109 3300 1328 
Q 3300 1584 3169 1773 
Q 3038 1963 2805 2039 
Q 2572 2116 2134 2116 
L 1075 2116 
L 1075 541 
z
" transform="scale(0.015625)"/>
       </defs>
       <use xlink:href="#ArialMT-48"/>
       <use xlink:href="#ArialMT-41" x="72.216797"/>
       <use xlink:href="#ArialMT-4c" x="138.916016"/>
       <use xlink:href="#ArialMT-4c" x="194.53125"/>
       <use xlink:href="#ArialMT-4d" x="250.146484"/>
       <use xlink:href="#ArialMT-41" x="333.447266"/>
       <use xlink:href="#ArialMT-52" x="400.146484"/>
       <use xlink:href="#ArialMT-4b" x="472.363281"/>
       <use xlink:href="#ArialMT-5f" x="539.0625"/>
       <use xlink:href="#ArialMT-54" x="594.677734"/>
       <use xlink:href="#ArialMT-4e" x="655.761719"/>
       <use xlink:href="#ArialMT-46" x="727.978516"/>
       <use xlink:href="#ArialMT-41" x="783.5625"/>
       <use xlink:href="#ArialMT-5f" x="850.261719"/>
       <use xlink:href="#ArialMT-53" x="905.876953"/>
       <use xlink:href="#ArialMT-49" x="972.576172"/>
       <use xlink:href="#ArialMT-47" x="1000.359375"/>
       <use xlink:href="#ArialMT-4e" x="1078.142578"/>
       <use xlink:href="#ArialMT-41" x="1150.359375"/>
       <use xlink:href="#ArialMT-4c" x="1217.058594"/>
       <use xlink:href="#ArialMT-49" x="1272.673828"/>
       <use xlink:href="#ArialMT-4e" x="1300.457031"/>
       <use xlink:href="#ArialMT-47" x="1372.673828"/>
       <use xlink:href="#ArialMT-5f" x="1450.457031"/>
       <use xlink:href="#ArialMT-56" x="1506.072266"/>
       <use xlink:href="#ArialMT-49" x="1572.771484"/>
       <use xlink:href="#ArialMT-41" x="1600.554688"/>
       <use xlink:href="#ArialMT-5f" x="1667.253906"/>
       <use xlink:href="#ArialMT-4e" x="1722.869141"/>
       <use xlink:href="#ArialMT-46" x="1795.085938"/>
       <use xlink:href="#ArialMT-4b" x="1856.169922"/>
       <use xlink:href="#ArialMT-42" x="1922.869141"/>
      </g>
     </g>
    </g>
   </g>
   <g id="line2d_14">
    <path d="M 451.848 350.2 
L 451.848 31.68 
" clip-path="url(#p2a4804c536)" style="fill: none; stroke-dasharray: 5.55,2.4; stroke-dashoffset: 0; stroke: #808080; stroke-width: 1.5"/>
   </g>
   <g id="patch_3">
    <path d="M 341.92 350.2 
L 341.92 31.68 
" style="fill: none; stroke: #000000; stroke-width: 0.8; stroke-linejoin: miter; stroke-linecap: square"/>
   </g>
   <g id="patch_4">
    <path d="M 561.776 350.2 
L 561.776 31.68 
" style="fill: none; stroke: #000000; stroke-width: 0.8; stroke-linejoin: miter; stroke-linecap: square"/>
   </g>
   <g id="patch_5">
    <path d="M 341.92 350.2 
L 561.776 350.2 
" style="fill: none; stroke: #000000; stroke-width: 0.8; stroke-linejoin: miter; stroke-linecap: square"/>
   </g>
   <g id="patch_6">
    <path d="M 341.92 31.68 
L 561.776 31.68 
" style="fill: none; stroke: #000000; stroke-width: 0.8; stroke-linejoin: miter; stroke-linecap: square"/>
   </g>
   <g id="text_15">
    <!-- Immune-related Hallmark GO Terms -->
    <g transform="translate(339.566906 25.68) scale(0.14 -0.14)">
     <defs>
      <path id="ArialMT-2d" d="M 203 1375 
L 203 1941 
L 1931 1941 
L 1931 1375 
L 203 1375 
z
" transform="scale(0.015625)"/>
      <path id="ArialMT-6b" d="M 425 0 
L 425 4581 
L 988 4581 
L 988 1969 
L 2319 3319 
L 3047 3319 
L 1778 2088 
L 3175 0 
L 2481 0 
L 1384 1697 
L 988 1316 
L 988 0 
L 425 0 
z
" transform="scale(0.015625)"/>
     </defs>
     <use xlink:href="#ArialMT-49"/>
     <use xlink:href="#ArialMT-6d" x="27.783203"/>
     <use xlink:href="#ArialMT-6d" x="111.083984"/>
     <use xlink:href="#ArialMT-75" x="194.384766"/>
     <use xlink:href="#ArialMT-6e" x="250"/>
     <use xlink:href="#ArialMT-65" x="305.615234"/>
     <use xlink:href="#ArialMT-2d" x="361.230469"/>
     <use xlink:href="#ArialMT-72" x="394.53125"/>
     <use xlink:href="#ArialMT-65" x="427.832031"/>
     <use xlink:href="#ArialMT-6c" x="483.447266"/>
     <use xlink:href="#ArialMT-61" x="505.664062"/>
     <use xlink:href="#ArialMT-74" x="561.279297"/>
     <use xlink:href="#ArialMT-65" x="589.0625"/>
     <use xlink:href="#ArialMT-64" x="644.677734"/>
     <use xlink:href="#ArialMT-20" x="700.292969"/>
     <use xlink:href="#ArialMT-48" x="728.076172"/>
     <use xlink:href="#ArialMT-61" x="800.292969"/>
     <use xlink:href="#ArialMT-6c" x="855.908203"/>
     <use xlink:href="#ArialMT-6c" x="878.125"/>
     <use xlink:href="#ArialMT-6d" x="900.341797"/>
     <use xlink:href="#ArialMT-61" x="983.642578"/>
     <use xlink:href="#ArialMT-72" x="1039.257812"/>
     <use xlink:href="#ArialMT-6b" x="1072.558594"/>
     <use xlink:href="#ArialMT-20" x="1122.558594"/>
     <use xlink:href="#ArialMT-47" x="1150.341797"/>
     <use xlink:href="#ArialMT-4f" x="1228.125"/>
     <use xlink:href="#ArialMT-20" x="1305.908203"/>
     <use xlink:href="#ArialMT-54" x="1331.941406"/>
     <use xlink:href="#ArialMT-65" x="1381.900391"/>
     <use xlink:href="#ArialMT-72" x="1437.515625"/>
     <use xlink:href="#ArialMT-6d" x="1470.816406"/>
     <use xlink:href="#ArialMT-73" x="1554.117188"/>
    </g>
   </g>
   <g id="legend_1">
    <g id="patch_7">
     <path d="M 581.7848 116.219612 
L 647.642113 116.219612 
Q 650.218113 116.219612 650.218113 113.643612 
L 650.218113 40.696 
Q 650.218113 38.12 647.642113 38.12 
L 581.7848 38.12 
Q 579.2088 38.12 579.2088 40.696 
L 579.2088 113.643612 
Q 579.2088 116.219612 581.7848 116.219612 
z
" style="fill: #ffffff; opacity: 0.8; stroke: #cccccc; stroke-linejoin: miter"/>
    </g>
    <g id="text_16">
     <!-- Genotype -->
     <g transform="translate(584.3608 53.463562) scale(0.14 -0.14)">
      <defs>
       <path id="ArialMT-79" d="M 397 -1278 
L 334 -750 
Q 519 -800 656 -800 
Q 844 -800 956 -737 
Q 1069 -675 1141 -563 
Q 1194 -478 1313 -144 
Q 1328 -97 1363 -6 
L 103 3319 
L 709 3319 
L 1400 1397 
Q 1534 1031 1641 628 
Q 1738 1016 1872 1384 
L 2581 3319 
L 3144 3319 
L 1881 -56 
Q 1678 -603 1566 -809 
Q 1416 -1088 1222 -1217 
Q 1028 -1347 759 -1347 
Q 597 -1347 397 -1278 
z
" transform="scale(0.015625)"/>
      </defs>
      <use xlink:href="#ArialMT-47"/>
      <use xlink:href="#ArialMT-65" x="77.783203"/>
      <use xlink:href="#ArialMT-6e" x="133.398438"/>
      <use xlink:href="#ArialMT-6f" x="189.013672"/>
      <use xlink:href="#ArialMT-74" x="244.628906"/>
      <use xlink:href="#ArialMT-79" x="272.412109"/>
      <use xlink:href="#ArialMT-70" x="322.412109"/>
      <use xlink:href="#ArialMT-65" x="378.027344"/>
     </g>
    </g>
    <g id="line2d_15">
     <path d="M 595.675206 67.561387 
L 598.895206 67.561387 
L 602.115206 67.561387 
" style="fill: none; stroke: #ffffff; stroke-width: 1.5; stroke-linecap: square"/>
     <defs>
      <path id="m9ab7099a7d" d="M 0 5 
C 1.326016 5 2.597899 4.473168 3.535534 3.535534 
C 4.473168 2.597899 5 1.326016 5 0 
C 5 -1.326016 4.473168 -2.597899 3.535534 -3.535534 
C 2.597899 -4.473168 1.326016 -5 0 -5 
C -1.326016 -5 -2.597899 -4.473168 -3.535534 -3.535534 
C -4.473168 -2.597899 -5 -1.326016 -5 0 
C -5 1.326016 -4.473168 2.597899 -3.535534 3.535534 
C -2.597899 4.473168 -1.326016 5 0 5 
z
" style="stroke: #000000"/>
     </defs>
     <g>
      <use xlink:href="#m9ab7099a7d" x="598.895206" y="67.561387" style="fill: #008080; stroke: #000000"/>
     </g>
    </g>
    <g id="text_17">
     <!-- KH -->
     <g transform="translate(607.267206 72.069387) scale(0.1288 -0.1288)">
      <use xlink:href="#ArialMT-4b"/>
      <use xlink:href="#ArialMT-48" x="66.699219"/>
     </g>
    </g>
    <g id="line2d_16">
     <path d="M 595.675206 85.78055 
L 598.895206 85.78055 
L 602.115206 85.78055 
" style="fill: none; stroke: #ffffff; stroke-width: 1.5; stroke-linecap: square"/>
     <defs>
      <path id="m51027d582d" d="M 0 5 
C 1.326016 5 2.597899 4.473168 3.535534 3.535534 
C 4.473168 2.597899 5 1.326016 5 0 
C 5 -1.326016 4.473168 -2.597899 3.535534 -3.535534 
C 2.597899 -4.473168 1.326016 -5 0 -5 
C -1.326016 -5 -2.597899 -4.473168 -3.535534 -3.535534 
C -4.473168 -2.597899 -5 -1.326016 -5 0 
C -5 1.326016 -4.473168 2.597899 -3.535534 3.535534 
C -2.597899 4.473168 -1.326016 5 0 5 
z
" style="stroke: #000000"/>
     </defs>
     <g>
      <use xlink:href="#m51027d582d" x="598.895206" y="85.78055" style="fill: #808000; stroke: #000000"/>
     </g>
    </g>
    <g id="text_18">
     <!-- KSH -->
     <g transform="translate(607.267206 90.28855) scale(0.1288 -0.1288)">
      <use xlink:href="#ArialMT-4b"/>
      <use xlink:href="#ArialMT-53" x="66.699219"/>
      <use xlink:href="#ArialMT-48" x="133.398438"/>
     </g>
    </g>
    <g id="line2d_17">
     <path d="M 595.675206 103.999712 
L 598.895206 103.999712 
L 602.115206 103.999712 
" style="fill: none; stroke: #ffffff; stroke-width: 1.5; stroke-linecap: square"/>
     <defs>
      <path id="m7eac4f28be" d="M 0 5 
C 1.326016 5 2.597899 4.473168 3.535534 3.535534 
C 4.473168 2.597899 5 1.326016 5 0 
C 5 -1.326016 4.473168 -2.597899 3.535534 -3.535534 
C 2.597899 -4.473168 1.326016 -5 0 -5 
C -1.326016 -5 -2.597899 -4.473168 -3.535534 -3.535534 
C -4.473168 -2.597899 -5 -1.326016 -5 0 
C -5 1.326016 -4.473168 2.597899 -3.535534 3.535534 
C -2.597899 4.473168 -1.326016 5 0 5 
z
" style="stroke: #000000"/>
     </defs>
     <g>
      <use xlink:href="#m7eac4f28be" x="598.895206" y="103.999712" style="fill: #800080; stroke: #000000"/>
     </g>
    </g>
    <g id="text_19">
     <!-- KS -->
     <g transform="translate(607.267206 108.507712) scale(0.1288 -0.1288)">
      <use xlink:href="#ArialMT-4b"/>
      <use xlink:href="#ArialMT-53" x="66.699219"/>
     </g>
    </g>
   </g>
   <g id="legend_2">
    <g id="patch_8">
     <path d="M 581.7848 314.0637 
L 692.772425 314.0637 
Q 695.348425 314.0637 695.348425 311.4877 
L 695.348425 199.956 
Q 695.348425 197.38 692.772425 197.38 
L 581.7848 197.38 
Q 579.2088 197.38 579.2088 199.956 
L 579.2088 311.4877 
Q 579.2088 314.0637 581.7848 314.0637 
z
" style="fill: #ffffff; opacity: 0.8; stroke: #cccccc; stroke-linejoin: miter"/>
    </g>
    <g id="text_20">
     <!-- Adjusted P-value -->
     <g transform="translate(584.3608 212.552937) scale(0.14 -0.14)">
      <defs>
       <path id="ArialMT-6a" d="M 419 3928 
L 419 4581 
L 981 4581 
L 981 3928 
L 419 3928 
z
M -294 -1288 
L -188 -809 
Q -19 -853 78 -853 
Q 250 -853 334 -739 
Q 419 -625 419 -169 
L 419 3319 
L 981 3319 
L 981 -181 
Q 981 -794 822 -1034 
Q 619 -1347 147 -1347 
Q -81 -1347 -294 -1288 
z
" transform="scale(0.015625)"/>
      </defs>
      <use xlink:href="#ArialMT-41"/>
      <use xlink:href="#ArialMT-64" x="66.699219"/>
      <use xlink:href="#ArialMT-6a" x="122.314453"/>
      <use xlink:href="#ArialMT-75" x="144.53125"/>
      <use xlink:href="#ArialMT-73" x="200.146484"/>
      <use xlink:href="#ArialMT-74" x="250.146484"/>
      <use xlink:href="#ArialMT-65" x="277.929688"/>
      <use xlink:href="#ArialMT-64" x="333.544922"/>
      <use xlink:href="#ArialMT-20" x="389.160156"/>
      <use xlink:href="#ArialMT-50" x="416.943359"/>
      <use xlink:href="#ArialMT-2d" x="483.642578"/>
      <use xlink:href="#ArialMT-76" x="516.943359"/>
      <use xlink:href="#ArialMT-61" x="566.943359"/>
      <use xlink:href="#ArialMT-6c" x="622.558594"/>
      <use xlink:href="#ArialMT-75" x="644.775391"/>
      <use xlink:href="#ArialMT-65" x="700.390625"/>
     </g>
    </g>
    <g id="PathCollection_7">
     <defs>
      <path id="m85e3d7d3ce" d="M 0 5.703135 
C 1.512489 5.703135 2.963234 5.102217 4.032725 4.032725 
C 5.102217 2.963234 5.703135 1.512489 5.703135 0 
C 5.703135 -1.512489 5.102217 -2.963234 4.032725 -4.032725 
C 2.963234 -5.102217 1.512489 -5.703135 0 -5.703135 
C -1.512489 -5.703135 -2.963234 -5.102217 -4.032725 -4.032725 
C -5.102217 -2.963234 -5.703135 -1.512489 -5.703135 0 
C -5.703135 1.512489 -5.102217 2.963234 -4.032725 4.032725 
C -2.963234 5.102217 -1.512489 5.703135 0 5.703135 
z
" style="stroke: #000000"/>
     </defs>
     <g>
      <use xlink:href="#m85e3d7d3ce" x="607.667694" y="240.696" style="fill: #808080; stroke: #000000"/>
     </g>
    </g>
    <g id="text_21">
     <!-- p = 0.05 -->
     <g transform="translate(616.039694 244.077) scale(0.1288 -0.1288)">
      <defs>
       <path id="ArialMT-3d" d="M 3381 2694 
L 356 2694 
L 356 3219 
L 3381 3219 
L 3381 2694 
z
M 3381 1303 
L 356 1303 
L 356 1828 
L 3381 1828 
L 3381 1303 
z
" transform="scale(0.015625)"/>
       <path id="ArialMT-2e" d="M 581 0 
L 581 641 
L 1222 641 
L 1222 0 
L 581 0 
z
" transform="scale(0.015625)"/>
      </defs>
      <use xlink:href="#ArialMT-70"/>
      <use xlink:href="#ArialMT-20" x="55.615234"/>
      <use xlink:href="#ArialMT-3d" x="83.398438"/>
      <use xlink:href="#ArialMT-20" x="141.796875"/>
      <use xlink:href="#ArialMT-30" x="169.580078"/>
      <use xlink:href="#ArialMT-2e" x="225.195312"/>
      <use xlink:href="#ArialMT-30" x="252.978516"/>
      <use xlink:href="#ArialMT-35" x="308.59375"/>
     </g>
    </g>
    <g id="PathCollection_8">
     <defs>
      <path id="ma96949a483" d="M 0 7.071068 
C 1.875269 7.071068 3.673985 6.326016 5 5 
C 6.326016 3.673985 7.071068 1.875269 7.071068 0 
C 7.071068 -1.875269 6.326016 -3.673985 5 -5 
C 3.673985 -6.326016 1.875269 -7.071068 0 -7.071068 
C -1.875269 -7.071068 -3.673985 -6.326016 -5 -5 
C -6.326016 -3.673985 -7.071068 -1.875269 -7.071068 0 
C -7.071068 1.875269 -6.326016 3.673985 -5 5 
C -3.673985 6.326016 -1.875269 7.071068 0 7.071068 
z
" style="stroke: #000000"/>
     </defs>
     <g>
      <use xlink:href="#ma96949a483" x="607.667694" y="271.8334" style="fill: #808080; stroke: #000000"/>
     </g>
    </g>
    <g id="text_22">
     <!-- p = 0.01 -->
     <g transform="translate(616.039694 275.2144) scale(0.1288 -0.1288)">
      <use xlink:href="#ArialMT-70"/>
      <use xlink:href="#ArialMT-20" x="55.615234"/>
      <use xlink:href="#ArialMT-3d" x="83.398438"/>
      <use xlink:href="#ArialMT-20" x="141.796875"/>
      <use xlink:href="#ArialMT-30" x="169.580078"/>
      <use xlink:href="#ArialMT-2e" x="225.195312"/>
      <use xlink:href="#ArialMT-30" x="252.978516"/>
      <use xlink:href="#ArialMT-31" x="308.59375"/>
     </g>
    </g>
    <g id="PathCollection_9">
     <defs>
      <path id="m324d3c5eda" d="M 0 8.660254 
C 2.296726 8.660254 4.499694 7.747755 6.123724 6.123724 
C 7.747755 4.499694 8.660254 2.296726 8.660254 0 
C 8.660254 -2.296726 7.747755 -4.499694 6.123724 -6.123724 
C 4.499694 -7.747755 2.296726 -8.660254 0 -8.660254 
C -2.296726 -8.660254 -4.499694 -7.747755 -6.123724 -6.123724 
C -7.747755 -4.499694 -8.660254 -2.296726 -8.660254 0 
C -8.660254 2.296726 -7.747755 4.499694 -6.123724 6.123724 
C -4.499694 7.747755 -2.296726 8.660254 0 8.660254 
z
" style="stroke: #000000"/>
     </defs>
     <g>
      <use xlink:href="#m324d3c5eda" x="607.667694" y="302.9708" style="fill: #808080; stroke: #000000"/>
     </g>
    </g>
    <g id="text_23">
     <!-- p = 0.001 -->
     <g transform="translate(616.039694 306.3518) scale(0.1288 -0.1288)">
      <use xlink:href="#ArialMT-70"/>
      <use xlink:href="#ArialMT-20" x="55.615234"/>
      <use xlink:href="#ArialMT-3d" x="83.398438"/>
      <use xlink:href="#ArialMT-20" x="141.796875"/>
      <use xlink:href="#ArialMT-30" x="169.580078"/>
      <use xlink:href="#ArialMT-2e" x="225.195312"/>
      <use xlink:href="#ArialMT-30" x="252.978516"/>
      <use xlink:href="#ArialMT-30" x="308.59375"/>
      <use xlink:href="#ArialMT-31" x="364.208984"/>
     </g>
    </g>
   </g>
  </g>
 </g>
 <defs>
  <clipPath id="p2a4804c536">
   <rect x="341.92" y="31.68" width="219.856" height="318.52"/>
  </clipPath>
 </defs>
</svg>
